# xmcd
#
# Track frame offsets:
#       150
#       18762
#       57660
#       85302
#       104737
#       131672
#       161897
#       193577
#       209100
#       227807
#
# Disc length: 3635 seconds
#
# Revision: 1
# Processed by: cddbd v1.4PL0 Copyright (c) Steve Scherf et al.
# Submitted via: MusiCat 1.1
#
DISCID=950e310a
DTITLE=Michael de Jong - Immaculate Deception
DYEAR=2000
DGENRE=
TTITLE0=Horses of the Moon
TTITLE1=Neutral Ground
TTITLE2=Growing up too fast
TTITLE3=Well my, my, my
TTITLE4=Dangerous Times
TTITLE5=Weekend fathers, part time mothers
TTITLE6=Immaculate Deception
TTITLE7=Prime Time
TTITLE8=Pretty little Love Song
TTITLE9=Revelation
EXTD=2000\n\n\nsubmitted by Stamppot
EXTT0=
EXTT1=
EXTT2=
EXTT3=
EXTT4=
EXTT5=
EXTT6=
EXTT7=
EXTT8=
EXTT9=
PLAYORDER=
